<svg xmlns="http://www.w3.org/2000/svg" viewBox="0 0 300 300">
  <path d="M137.316 35c-53.875 9.23-94.159 53.944-97.14 107.824-2.982 53.88 32.13 102.655 84.666 117.62 52.536 14.964 108.585-7.846 135.158-55.007 0 0-77.44 9.989-120.748-43.33C96.01 108.87 137.316 35 137.316 35zm-6.847 182.326a14.608 14.643 0 0 1 14.607 14.643 14.608 14.643 0 0 1-14.607 14.642 14.608 14.643 0 0 1-14.608-14.642 14.608 14.643 0 0 1 14.608-14.643zm30.082 20.987a7.285 7.302 0 0 1 7.285 7.302 7.285 7.302 0 0 1-7.285 7.303 7.285 7.302 0 0 1-7.285-7.303 7.285 7.302 0 0 1 7.285-7.303z" style="stroke-width:17.1571;stroke-linecap:round;stroke-linejoin:bevel"/>
</svg>
