<svg xmlns="http://www.w3.org/2000/svg" viewBox="0 0 300 300">
  <path d="M214.212 150a64.212 64.212 0 0 1-64.184 64.212 64.212 64.212 0 0 1-64.24-64.155 64.212 64.212 0 0 1 64.127-64.27 64.212 64.212 0 0 1 64.297 64.1" style="fill:none;stroke:#000;stroke-width:16;stroke-linecap:round;stroke-linejoin:bevel;stroke-dasharray:none;stroke-dashoffset:0"/>
  <path d="M209.504 89.884c1.513-2.984 4.226-6.719 8.202-9.793 2.799-2.164 5.825-3.718 9.158-4.97 3.084-1.157 6.294-2.008 9.565-2.882 2.895-.773 5.78-1.55 8.5-2.525a56.916 56.916 0 0 0 1.725-.651c3.176-1.256 6.929-3.043 10.59-5.19 3.54-2.077 7.018-4.5 10.158-7.317 3.425-3.073 6.11-6.309 8.201-9.709 2.918-4.741 4.22-9.06 5.098-11.931-1.812 2.522-4.816 5.53-9.074 7.974-2.998 1.72-6.234 2.962-9.846 3.98-3.338.942-6.77 1.634-10.345 2.384-3.766.79-7.473 1.604-10.948 2.748-.625.206-1.237.42-1.836.646-2.864 1.078-6.014 2.624-9.095 4.582-3.523 2.241-6.89 4.978-9.79 8.218-3.131 3.5-5.386 7.214-6.973 11.054-2.196 5.312-2.833 10.218-3.29 13.382z" style="fill:#000;fill-rule:nonzero;stroke:none;stroke-width:29.7787;stroke-linecap:round;stroke-linejoin:round;stroke-dasharray:none"/>
  <path d="M93.738 214.066c-1.681 2.795-4.581 6.238-8.663 8.948-2.874 1.909-5.926 3.208-9.255 4.191-3.08.91-6.26 1.513-9.503 2.133-2.87.55-5.729 1.103-8.443 1.86-.56.157-1.135.328-1.723.513-3.177 1-6.952 2.474-10.664 4.306-3.587 1.771-7.14 3.884-10.39 6.403-3.546 2.749-6.383 5.708-8.655 8.867-3.17 4.407-4.74 8.516-5.793 11.247 1.938-2.326 5.07-5.042 9.383-7.12 3.035-1.463 6.27-2.443 9.853-3.18 3.312-.683 6.698-1.115 10.228-1.594 3.718-.505 7.38-1.036 10.839-1.905a45.177 45.177 0 0 0 1.83-.5c2.862-.848 6.033-2.13 9.166-3.82 3.584-1.931 7.05-4.357 10.096-7.305 3.29-3.185 5.744-6.638 7.557-10.261 2.507-5.013 3.47-9.738 4.137-12.783z" style="fill:#000;fill-rule:nonzero;stroke:none;stroke-width:29.0345;stroke-linecap:round;stroke-linejoin:round;stroke-dasharray:none"/>
  <path d="M36.285 29.665c.07 3.008.113 7.665 1.566 12.877 1.05 3.768 2.74 7.493 5.272 11.118 2.344 3.355 5.182 6.292 8.223 8.784 2.658 2.178 5.428 3.977 7.983 5.308.534.278 1.082.548 1.643.81 3.119 1.462 6.491 2.64 9.922 3.803 3.257 1.104 6.386 2.138 9.4 3.394 3.26 1.36 6.145 2.885 8.753 4.83 3.705 2.764 6.172 5.915 7.581 8.477-.496-2.782-1.226-6.966-3.419-11.727-1.571-3.413-3.715-6.74-6.57-9.998-2.616-2.987-5.593-5.644-8.667-7.983-3.18-2.42-6.487-4.513-9.314-6.045a53.586 53.586 0 0 0-1.538-.804c-2.433-1.218-5.04-2.269-7.66-3.318-2.958-1.185-5.863-2.343-8.614-3.772-2.974-1.546-5.627-3.339-7.999-5.677-3.37-3.322-5.484-7.118-6.562-10.077z" style="fill:#000;fill-rule:nonzero;stroke:none;stroke-width:28.0329;stroke-linecap:round;stroke-linejoin:round;stroke-dasharray:none"/>
  <path d="M212.386 206.907c.069 2.953.11 7.524 1.537 12.642 1.031 3.699 2.69 7.355 5.175 10.913 2.301 3.294 5.088 6.178 8.073 8.624 2.61 2.138 5.328 3.904 7.837 5.21a42.82 42.82 0 0 0 1.613.797c3.061 1.434 6.372 2.59 9.74 3.733 3.198 1.084 6.27 2.098 9.228 3.332 3.201 1.334 6.033 2.831 8.593 4.741 3.637 2.714 6.06 5.807 7.443 8.322-.487-2.731-1.204-6.839-3.356-11.512-1.544-3.35-3.648-6.617-6.45-9.816-2.569-2.932-5.492-5.54-8.51-7.836-3.122-2.376-6.367-4.43-9.142-5.935a52.6 52.6 0 0 0-1.511-.789c-2.388-1.196-4.948-2.227-7.52-3.257-2.904-1.164-5.755-2.3-8.456-3.704-2.92-1.517-5.524-3.277-7.853-5.573-3.307-3.26-5.383-6.988-6.441-9.892z" style="fill:#000;fill-rule:nonzero;stroke:none;stroke-width:27.5202;stroke-linecap:round;stroke-linejoin:round;stroke-dasharray:none"/>
  <path d="M228.988 149.567c1.253 2.289 3.162 5.933 6.273 9.155a24.772 24.772 0 0 0 8.454 5.752c3.15 1.304 6.477 1.959 9.709 2.149 2.819.166 5.518-.026 7.805-.434.48-.085.962-.184 1.448-.294 2.7-.614 5.386-1.559 8.045-2.52 2.514-.908 4.911-1.795 7.301-2.43 2.595-.687 5.074-1.045 7.633-.888 3.659.224 6.763 1.493 8.88 2.845-1.47-1.875-3.706-4.754-7.228-7.213-2.553-1.782-5.51-3.16-8.977-4.059-3.172-.822-6.443-1.156-9.597-1.195a54.189 54.189 0 0 0-8.933.635 38.69 38.69 0 0 0-1.351.24c-2.101.412-4.196 1.025-6.242 1.625-2.291.673-4.552 1.34-6.797 1.696-2.454.39-4.897.408-7.502-.227-3.713-.904-6.874-2.958-8.921-4.837z" style="fill:#000;fill-rule:nonzero;stroke:none;stroke-width:24.7882;stroke-linecap:round;stroke-linejoin:round;stroke-dasharray:none"/>
  <path d="M70.376 155c-1.127-2.601-2.838-6.792-5.775-10.432-2.175-2.695-4.92-4.985-8.452-6.598-3.262-1.49-6.75-2.194-10.118-2.36-2.933-.145-5.728.12-8.06.607-.489.102-.98.219-1.474.348-2.738.717-5.427 1.79-8.037 2.858-2.46 1.007-4.798 1.986-7.097 2.667-2.503.742-4.934 1.12-7.506.879-3.697-.348-6.878-1.94-9.03-3.587 1.384 2.123 3.506 5.428 6.984 8.207 2.545 2.033 5.563 3.595 9.177 4.58 3.297.9 6.71 1.216 9.975 1.2 3.36-.017 6.626-.39 9.14-.865.47-.089.922-.183 1.356-.282 2.097-.478 4.158-1.165 6.114-1.821 2.17-.729 4.331-1.466 6.43-1.837 2.326-.411 4.718-.403 7.358.426 3.762 1.18 6.978 3.74 9.015 6.01z" style="fill:#000;fill-rule:nonzero;stroke:none;stroke-width:26.8259;stroke-linecap:round;stroke-linejoin:round;stroke-dasharray:none"/>
  <path d="M150.302 70.85c-2.37-2.033-5.059-5.26-6.312-9.036-.88-2.65-.894-5.03-.475-7.324.375-2.06 1.13-4.195 1.87-6.333.67-1.933 1.375-3.987 1.87-6.082.102-.434.2-.887.292-1.358.494-2.516.892-5.807.924-9.195.032-3.292-.277-6.743-1.195-10.073-1.008-3.652-2.616-6.686-4.711-9.228-2.856-3.465-6.272-5.56-8.452-6.92 1.721 2.157 3.397 5.359 3.777 9.066.263 2.577-.12 4.995-.876 7.475-.695 2.283-1.694 4.598-2.724 7.044-1.094 2.597-2.2 5.288-2.942 8.037-.134.495-.255.99-.362 1.48-.507 2.343-.792 5.164-.654 8.126.16 3.404.874 6.934 2.412 10.225 1.666 3.565 4.034 6.302 6.81 8.448 3.741 2.89 8.07 4.55 10.748 5.648zM146.424 231.007c2.369 2.033 5.059 5.26 6.311 9.035.88 2.65.894 5.03.476 7.324-.375 2.06-1.13 4.195-1.871 6.334-.67 1.933-1.374 3.986-1.87 6.082-.101.434-.199.887-.291 1.357a51.998 51.998 0 0 0-.925 9.195c-.032 3.292.277 6.743 1.196 10.073 1.007 3.652 2.615 6.686 4.71 9.229 2.857 3.464 6.273 5.56 8.452 6.92-1.72-2.158-3.397-5.36-3.776-9.067-.264-2.576.12-4.994.875-7.474.695-2.284 1.695-4.598 2.725-7.044 1.094-2.598 2.199-5.289 2.942-8.037.134-.496.255-.99.361-1.481.507-2.343.793-5.163.654-8.125-.16-3.404-.874-6.934-2.412-10.226-1.666-3.565-4.033-6.301-6.81-8.447-3.74-2.89-8.069-4.551-10.747-5.648z" style="fill:#000;fill-rule:nonzero;stroke:none;stroke-width:27.3116;stroke-linecap:round;stroke-linejoin:round;stroke-dasharray:none"/>
</svg>
