<svg xmlns="http://www.w3.org/2000/svg" xmlns:xlink="http://www.w3.org/1999/xlink" width="1440" height="1440" viewBox="0 0 1920 1920"><defs><linearGradient xlink:href="#a" id="b" x1="241.565" x2="294.481" y1="33.602" y2="175.683" gradientUnits="userSpaceOnUse"/><linearGradient id="a"><stop offset="0" style="stop-color:#01fff7;stop-opacity:1"/><stop offset=".872" style="stop-color:#ff006c;stop-opacity:1"/></linearGradient><linearGradient xlink:href="#a" id="c" x1="241.565" x2="294.481" y1="33.602" y2="175.683" gradientTransform="matrix(-1.1384 0 0 1.07499 543.264 -11.235)" gradientUnits="userSpaceOnUse"/><linearGradient xlink:href="#a" id="k" x1="241.565" x2="294.481" y1="33.602" y2="175.683" gradientUnits="userSpaceOnUse"/><linearGradient xlink:href="#a" id="j" x1="241.565" x2="294.481" y1="33.602" y2="175.683" gradientUnits="userSpaceOnUse"/><linearGradient xlink:href="#a" id="f" x1="241.565" x2="294.481" y1="33.602" y2="175.683" gradientUnits="userSpaceOnUse"/><linearGradient xlink:href="#a" id="g" x1="241.565" x2="294.481" y1="33.602" y2="175.683" gradientUnits="userSpaceOnUse"/><linearGradient xlink:href="#a" id="h" x1="241.565" x2="294.481" y1="33.602" y2="175.683" gradientUnits="userSpaceOnUse"/><linearGradient xlink:href="#a" id="d" x1="241.565" x2="294.481" y1="33.602" y2="175.683" gradientUnits="userSpaceOnUse"/><linearGradient xlink:href="#a" id="s" x1="241.565" x2="294.481" y1="33.602" y2="175.683" gradientUnits="userSpaceOnUse"/><linearGradient xlink:href="#a" id="r" x1="241.565" x2="294.481" y1="33.602" y2="175.683" gradientUnits="userSpaceOnUse"/><linearGradient xlink:href="#a" id="A" x1="241.565" x2="294.481" y1="33.602" y2="175.683" gradientTransform="translate(-5.492 .305)" gradientUnits="userSpaceOnUse"/><linearGradient xlink:href="#a" id="y" x1="241.565" x2="294.481" y1="33.602" y2="175.683" gradientUnits="userSpaceOnUse"/><linearGradient xlink:href="#a" id="u" x1="241.565" x2="294.481" y1="33.602" y2="175.683" gradientTransform="translate(0 2.136)" gradientUnits="userSpaceOnUse"/><linearGradient xlink:href="#a" id="z" x1="241.565" x2="294.481" y1="33.602" y2="175.683" gradientUnits="userSpaceOnUse"/><linearGradient xlink:href="#a" id="w" x1="241.565" x2="294.481" y1="33.602" y2="175.683" gradientUnits="userSpaceOnUse"/><linearGradient xlink:href="#a" id="o" x1="241.565" x2="294.481" y1="33.602" y2="175.683" gradientUnits="userSpaceOnUse"/><linearGradient xlink:href="#a" id="m" x1="241.565" x2="294.481" y1="33.602" y2="175.683" gradientUnits="userSpaceOnUse"/><linearGradient xlink:href="#a" id="l" x1="241.565" x2="294.481" y1="33.602" y2="175.683" gradientUnits="userSpaceOnUse"/><linearGradient xlink:href="#a" id="q" x1="241.565" x2="294.481" y1="33.602" y2="175.683" gradientUnits="userSpaceOnUse"/><linearGradient xlink:href="#a" id="p" x1="241.565" x2="294.481" y1="33.602" y2="175.683" gradientUnits="userSpaceOnUse"/><linearGradient xlink:href="#a" id="i" x1="241.565" x2="294.481" y1="33.602" y2="175.683" gradientUnits="userSpaceOnUse"/><linearGradient xlink:href="#a" id="e" x1="241.565" x2="294.481" y1="33.602" y2="175.683" gradientUnits="userSpaceOnUse"/><linearGradient xlink:href="#a" id="x" x1="241.565" x2="294.481" y1="33.602" y2="175.683" gradientUnits="userSpaceOnUse"/><linearGradient xlink:href="#a" id="n" x1="241.565" x2="294.481" y1="33.602" y2="175.683" gradientUnits="userSpaceOnUse"/><linearGradient xlink:href="#a" id="t" x1="241.565" x2="294.481" y1="33.602" y2="175.683" gradientUnits="userSpaceOnUse"/><linearGradient xlink:href="#a" id="v" x1="241.565" x2="294.481" y1="33.602" y2="175.683" gradientTransform="matrix(-.88293 -.06891 -.06891 .88293 487.598 26.17)" gradientUnits="userSpaceOnUse"/></defs><g style="display:inline;fill:url(#b);fill-opacity:1" transform="translate(-700.896 41.544) scale(6.55477)"><path d="M252.466 152.505c.178.255.345.623.412 1.054.048.316.038.636-.029.96-.112.543-.373 1.053-.675 1.604-.288.526-.608 1.084-.91 1.734a9.257 9.257 0 0 0-.592 1.623 8.02 8.02 0 0 0-.124.6c-.13.767-.194 1.721-.146 2.71.047.954.197 1.939.496 2.867.327 1.018.795 1.855 1.373 2.523.795.92 1.66 1.358 2.178 1.635-.339-.543-.59-1.347-.507-2.287.058-.65.263-1.28.547-1.95.26-.613.59-1.262.91-1.94.341-.717.672-1.464.897-2.212.061-.203.114-.404.157-.603.127-.59.191-1.277.177-1.995a9.164 9.164 0 0 0-.467-2.767c-.336-.98-.835-1.774-1.457-2.361a4.515 4.515 0 0 0-1.071-.752c-.458-.231-.89-.355-1.169-.443z" style="display:inline;fill:url(#c);fill-opacity:1;fill-rule:nonzero;stroke:none;stroke-width:1.17875"/><path d="M254.001 146.721c.376.132 1.127.661 2.229.823 1.14.168 4.155.095 6.917-.418 1.56-.289 3.015-.707 4.382-1.29 1.932-.825 3.228-1.784 4.05-2.41-.882.54-2.332 1.233-4.289 1.675-1.388.314-2.805.456-4.312.509-2.775.097-5.51-.065-6.78.167-1.118.204-1.825.778-2.197.944z" style="display:inline;fill:url(#d);fill-opacity:1;fill-rule:nonzero;stroke:none;stroke-width:.668174"/><path d="M254.434 138.721c-1.353-.073-2.991-.576-5.85-1.386-1.355-.385-2.794-.765-4.156-.956a20.933 20.933 0 0 0-2.225-.18c-2.116-.066-4.435.134-6.507.758a12.566 12.566 0 0 0-2.852 1.24c-1.132.677-1.857 1.388-2.326 1.86.592-.336 1.495-.698 2.69-.89.844-.136 1.755-.177 2.768-.13 1.94.09 3.873.47 5.893.79.752.118 1.466.218 2.13.278a25.83 25.83 0 0 0 4.33-.008c3.149-.262 4.84-.923 6.105-1.376z" style="display:inline;fill:url(#e);fill-opacity:1;fill-rule:nonzero;stroke:none;stroke-width:1.12306"/><path d="M253.868 133.402c.007.072.018.188.089.338.049.105.122.215.224.319a1.37 1.37 0 0 0 .977.41c.09 0 .19-.01.3-.03.193-.034.411-.096.66-.185.404-.143.857-.344 1.39-.588.456-.209.959-.443 1.47-.66.495-.211.993-.404 1.482-.554a6.782 6.782 0 0 1 1.422-.292c.5-.04.943.005 1.338.137.571.19.97.538 1.22.852-.172-.342-.452-.839-.984-1.27-.38-.307-.86-.559-1.462-.723a6.642 6.642 0 0 0-1.74-.21c-.602 0-1.215.06-1.807.153-.611.096-1.202.225-1.71.352-.57.142-1.091.294-1.442.41a5.05 5.05 0 0 0-.551.212c-.08.038-.146.075-.199.112a.795.795 0 0 0-.18.177c-.107.143-.16.31-.213.475-.034.11-.065.207-.106.301a.681.681 0 0 1-.178.264z" style="display:inline;fill:url(#f);fill-opacity:1;fill-rule:nonzero;stroke:none;stroke-width:.893638"/><path d="M257.043 106.495c-.365.488-1.586 1.6-1.967 3.36-.223 1.025-.223 2.668.172 4.404.32 1.408.863 2.716 1.604 3.821 1.025 1.528 2.155 2.273 2.837 2.702-.59-.59-1.316-1.638-1.745-3.214-.308-1.133-.414-2.338-.408-3.58.007-1.52.188-2.93.171-3.857-.028-1.532-.597-3.041-.664-3.636z" style="display:inline;fill:url(#g);fill-opacity:1;fill-rule:nonzero;stroke:none"/><path d="M289.646 97.097c-.141 1.457-.823 4.63-1.088 8.854-.292 4.634-.29 12.336-1.577 21.754-.875 6.394-2.182 12.27-3.953 17.622-1.743 5.267-3.617 9.04-4.873 11.252a71.29 71.29 0 0 0 5.762-10.917c2.222-5.24 4.032-11.13 5.323-17.577 1.849-9.236 2.22-17.692 1.963-22.129-.247-4.285-1.265-7.458-1.557-8.86z" style="display:inline;fill:url(#h);fill-opacity:1;fill-rule:nonzero;stroke:none"/><path d="M296.63 97.193c-.115.348-.606 1.058-.623 2.042-.007.374.056.87.159 1.454.162.923.424 2.037.6 3.174.167 1.072.245 2.093.157 3.112-.124 1.438-.562 2.538-.949 3.22.474-.607 1.212-1.574 1.739-3.043.375-1.048.579-2.17.642-3.362a17.51 17.51 0 0 0-.172-3.431c-.09-.596-.205-1.098-.332-1.44-.334-.894-1.024-1.434-1.222-1.726z" style="display:inline;fill:url(#i);fill-opacity:1;fill-rule:nonzero;stroke:none"/><path d="M263.359 100.987c.416-.06 1.423.2 2.422-.031.457-.106 1.078-.357 1.867-.621 1.098-.368 2.418-.722 3.947-.816 1.415-.087 2.804.065 4.083.489 1.818.603 2.993 1.62 3.61 2.372-.47-.811-1.334-2.2-3.104-3.385-1.258-.842-2.779-1.445-4.461-1.709-1.804-.283-3.53-.135-4.931.267-1.015.29-1.788.694-2.241 1.069-1.009.832-1.063 1.987-1.192 2.365z" style="fill:url(#j);fill-opacity:1;fill-rule:nonzero;stroke:none;stroke-width:.997203"/><path d="M260.975 95.747c.466-.016 1.542.308 2.845-.028.726-.187 1.78-.642 3.155-1.212 1.68-.697 3.68-1.494 5.923-2.122 2.113-.592 4.167-.954 6.125-1.018 2.774-.091 4.744.446 5.897.94-1.073-.627-2.906-1.614-5.819-2.091-2.052-.336-4.3-.36-6.644-.075-2.467.3-4.761.908-6.575 1.585-1.49.557-2.611 1.14-3.237 1.622-1.137.874-1.426 2.002-1.67 2.4z" style="display:inline;fill:url(#k);fill-opacity:1;fill-rule:nonzero;stroke:none"/><path d="M218.487 128.462c-.072.503-.517 1.54-.457 3.062.065 1.675 1.013 6.84 2.642 11.44.877 2.476 1.922 4.73 3.192 6.728 1.807 2.841 3.625 4.46 4.811 5.437-1.107-1.07-2.648-2.936-3.998-5.88-.953-2.077-1.661-4.343-2.244-6.805-1.125-4.758-1.695-9.447-2.348-11.312-.51-1.456-1.325-2.234-1.598-2.67z" style="display:inline;fill:url(#l);fill-opacity:1;fill-rule:nonzero;stroke:none;stroke-width:1.11859"/><path d="M246.77 132.178c-.234-.322-.315-.88-.499-1.47a2.914 2.914 0 0 0-.057-.168c-.102-.267-.23-.515-.33-.782a4.786 4.786 0 0 1-.27-1.043 5.354 5.354 0 0 1-.029-1.215c.078-.88.358-1.77.805-2.535.25-.43.537-.79.834-1.082a3.7 3.7 0 0 1 1.136-.779c-.31.063-.79.176-1.357.47-.4.207-.822.494-1.237.884a6.618 6.618 0 0 0-1.722 2.697c-.18.54-.284 1.089-.304 1.625a4.566 4.566 0 0 0 .23 1.662c.194.56.48.977.756 1.232.071.066.146.125.222.177.746.51 1.538.326 1.822.327z" style="display:inline;fill:url(#m);fill-opacity:1;fill-rule:nonzero;stroke:none"/><path d="M243.597 107.381c-.339.128-1.104.213-2.073.51-.52.158-1.282.433-2.295.652-1.3.282-2.878.436-4.566.216-1.576-.206-3.022-.712-4.211-1.504a7.408 7.408 0 0 1-1.659-1.5 6.828 6.828 0 0 1-1.154-2.072c.146.55.406 1.356.945 2.221.38.61.88 1.22 1.535 1.786 1.156 1.002 2.65 1.742 4.349 2.135a12.2 12.2 0 0 0 5.046.095c1.137-.225 2-.585 2.523-.898.978-.587 1.347-1.349 1.56-1.641z" style="display:inline;fill:url(#n);fill-opacity:1;fill-rule:nonzero;stroke:none;stroke-width:1.32809;stroke-opacity:1"/><path d="M244.646 95.723c-.539-.485-1.621-1.823-3.597-2.483-.486-.163-1.1-.306-1.816-.406-1.746-.243-3.852-.198-6.192.208-5.177.898-9.496 3.176-11.295 4.06 1.925-.659 6.579-1.89 11.505-2.05 2.27-.073 4.061.084 5.652.28.628.079 1.192.158 1.635.204 1.774.181 3.406.062 4.108.187z" style="display:inline;fill:url(#o);fill-opacity:1;fill-rule:nonzero;stroke:none;stroke-width:1.25724"/><path d="M215.713 99.905c-.513.225-2.168.465-3.048 1.957-.23.388-.433.922-.575 1.565-.305 1.38-.292 3.099.158 4.888a13.019 13.019 0 0 0 2.464 4.952c1.055 1.315 2.098 2.09 2.685 2.54-1.151-1.49-2.255-4.323-2.035-7.834.094-1.49.383-2.659.616-3.674.106-.463.191-.863.216-1.195.091-1.224-.491-2.621-.48-3.199z" style="display:inline;fill:url(#p);fill-opacity:1;fill-rule:nonzero;stroke:none"/><path d="M204.862 96.257c-.325.151-1.377.425-2.055 1.773a5.092 5.092 0 0 0-.256.614c-.309.89-.53 2.175-.48 3.871.071 2.458.715 5.542 2.06 8.657a24.671 24.671 0 0 0 2.158 3.985c.854 1.269 1.779 2.348 2.74 3.21 1.092.979 2.166 1.62 3.179 2a6.88 6.88 0 0 0 3.412.399c-.806.047-1.951-.066-3.254-.753-.908-.478-1.835-1.205-2.749-2.234-.805-.906-1.563-2.009-2.25-3.277-.66-1.22-1.23-2.55-1.696-3.925-1.034-3.05-1.427-5.901-1.445-8.103a18.451 18.451 0 0 1 .267-3.318c.033-.2.062-.37.086-.525.178-1.163.146-1.993.283-2.374z" style="display:inline;fill:url(#q);fill-opacity:1;fill-rule:nonzero;stroke:none"/><path d="M257.775 58.071c1.209-.114 3.006-.188 5.016.487 1.441.485 2.836 1.3 4.186 2.498 1.258 1.115 2.366 2.466 3.348 3.913a34.502 34.502 0 0 1 1.783 2.951c.288.533.575 1.092.866 1.681.814 1.644 1.471 3.098 2.285 4.742.768 1.546 1.555 2.994 2.445 4.29.966 1.406 1.98 2.524 3.104 3.393 1.596 1.234 3.178 1.77 4.383 2-1.198-.076-2.92-.304-4.836-1.276-1.368-.694-2.686-1.686-3.977-3.03-1.183-1.232-2.245-2.655-3.229-4.169-1.003-1.543-1.938-3.203-2.714-4.634a141.4 141.4 0 0 1-.874-1.639c-.49-.933-1.01-1.947-1.53-2.906-.78-1.436-1.581-2.778-2.493-3.952-.972-1.251-2.004-2.224-3.172-2.94a9.7 9.7 0 0 0-4.59-1.409z" style="fill:url(#r);fill-opacity:1;fill-rule:nonzero;stroke:none"/><path d="M283.08 56.844c1.279.538 4.035 2.344 6.842 3.565l.145.063c1.575.67 4.211 1.579 6.776 1.961 2.332.348 4.597.282 6.899-.387a17.12 17.12 0 0 0 3.521-1.487c1.535-.85 2.823-1.823 3.707-2.513a19.962 19.962 0 0 1-3.95 1.979 14.772 14.772 0 0 1-3.517.822c-2.17.224-4.152-.099-6.169-.688-2.338-.683-4.62-1.663-6.356-2.19-.051-.016-.102-.032-.152-.046-3.304-.977-5.993-.94-7.746-1.08z" style="display:inline;fill:url(#s);fill-opacity:1;fill-rule:nonzero;stroke:none"/><path d="M262.93 49.963c.776 1.012 2.14 3.084 4.344 4.39a8.31 8.31 0 0 0 1.902.833c.868.254 1.927.4 3.14.324 1.507-.094 3.061-.515 4.714-1.253 1.422-.635 2.803-1.452 4.215-2.356 1.338-.857 2.663-1.766 3.967-2.578 1.356-.845 2.643-1.558 3.942-2.077 1.46-.582 2.824-.873 4.165-.882 1.915-.014 3.514.557 4.668 1.15-1.085-.671-2.633-1.473-4.626-1.756-1.415-.202-2.92-.127-4.588.266-1.478.348-2.95.912-4.467 1.602-1.446.658-2.917 1.424-4.291 2.106-1.485.737-2.79 1.344-4.086 1.808-1.48.53-2.705.784-3.823.867-.898.067-1.663.02-2.333-.051a17.235 17.235 0 0 1-1.594-.24c-2.127-.426-4.095-1.335-5.25-2.153z" style="fill:url(#t);fill-opacity:1;fill-rule:nonzero;stroke:none;stroke-width:1.18206"/><path d="M259.039 39.364c2.236-1.15 5.845-2.622 9.476-3.606a43.474 43.474 0 0 1 6.491-1.247c1.516-.169 2.947-.208 4.434-.03 1.235.148 2.378.43 3.636.832 1.16.371 2.355.831 3.6 1.224 1.293.409 2.571.716 3.945.796 1.535.09 3-.118 4.492-.581 2.09-.648 4.02-1.738 5.458-2.61-1.527.758-3.553 1.554-5.632 1.798-1.465.172-2.778.054-4.034-.319-1.118-.331-2.128-.842-3.2-1.458-1.023-.588-2.144-1.298-3.34-1.915-1.312-.677-2.703-1.24-4.286-1.566a14.925 14.925 0 0 0-5.646-.054c-.458.082-.899.18-1.318.293-1.853.493-3.735 1.354-5.61 2.44-3.41 1.972-6.51 4.52-8.466 6.003z" style="display:inline;fill:url(#u);fill-opacity:1;fill-rule:nonzero;stroke:none;stroke-width:1.44092"/><path d="M258.465 37.213c.04-.66.24-1.583.714-2.583.335-.706.759-1.359 1.263-2.029.59-.783 1.259-1.546 1.85-2.317.334-.436.732-.99 1.124-1.569.924-1.358 1.957-3.023 2.64-4.724.373-.926.617-1.793.758-2.628.197-1.174.156-2.102.117-2.74-.107.638-.366 1.504-.898 2.475a12.928 12.928 0 0 1-1.42 2.047c-1.05 1.266-2.39 2.52-3.504 3.763a15.632 15.632 0 0 0-1.28 1.602c-.608.895-1.13 1.967-1.454 3.106a9.438 9.438 0 0 0-.37 2.78c.023 1.238.295 2.198.46 2.817z" style="display:inline;fill:url(#v);fill-opacity:1;fill-rule:nonzero;stroke:none;stroke-width:1.23268"/><path d="M234.43 72.874c-1.362 1.113-3.592 2.616-5.75 5.301l-.1.125c-1.125 1.423-2.442 3.529-3.974 5.423a19.233 19.233 0 0 1-2.099 2.242 13.813 13.813 0 0 1-2.577 1.839 14.772 14.772 0 0 1-3.359 1.329 19.962 19.962 0 0 1-4.373.625c1.12.063 2.732.129 4.477-.048a17.12 17.12 0 0 0 3.742-.785 14.89 14.89 0 0 0 3.176-1.502 17.554 17.554 0 0 0 2.713-2.112c1.89-1.776 3.538-4.025 4.45-5.473l.084-.135c1.61-2.602 2.845-5.658 3.59-6.829z" style="display:inline;fill:url(#w);fill-opacity:1;fill-rule:nonzero;stroke:none"/><path d="M220.122 65.733c-1.584.764-4.103 1.705-6.828 3.814l-.125.098c-1.426 1.121-3.198 2.862-5.129 4.346-.813.625-1.656 1.2-2.564 1.692-.926.5-1.892.9-2.935 1.187-1.169.32-2.362.48-3.576.509-1.71.04-3.292-.184-4.399-.412 1.074.323 2.627.762 4.366.998a17.12 17.12 0 0 0 3.82.109 14.89 14.89 0 0 0 3.44-.72 17.554 17.554 0 0 0 3.13-1.422c2.252-1.286 4.38-3.089 5.604-4.284l.113-.112c2.172-2.155 4.086-4.838 5.083-5.803z" style="display:inline;fill:url(#x);fill-opacity:1;fill-rule:nonzero;stroke:none"/><path d="M248.02 63.89c-1.135-.137-3.265-1.172-5.798-1.927a52.23 52.23 0 0 0-.783-.225c-1.493-.419-3.253-.913-5.632-1.957-1.785-.783-3.605-1.737-5.753-2.983-1.876-1.089-3.866-2.327-5.915-3.54-2.003-1.185-4.038-2.326-6.104-3.261-2.158-.978-4.25-1.684-6.336-2.042-2.363-.406-4.505-.326-6.499.117-2.812.625-5.063 1.922-6.621 2.939 1.664-.906 4.015-1.85 6.753-1.997 1.912-.103 3.842.186 5.86.91 1.78.638 3.54 1.582 5.368 2.778 1.762 1.152 3.506 2.483 5.311 3.89 1.872 1.457 3.673 2.886 5.573 4.242 2.111 1.506 4.128 2.761 6.173 3.731 2.741 1.3 5.144 1.889 7.094 1.993.375.02.722.02 1.04.006 3.388-.153 5.394-2.116 6.27-2.673z" style="display:inline;fill:url(#y);fill-opacity:1;fill-rule:nonzero;stroke:none;stroke-width:1.74833"/><path d="M255.947 46.848c-1.241-.372-3.528-1.788-6.255-3.1-.1-.049-.2-.097-.302-.144-1.464-.689-2.9-1.276-5.209-2.495-4.052-2.14-5.9-3.534-10.964-6.637-1.883-1.154-3.816-2.27-5.825-3.238-2.09-1.007-4.163-1.805-6.29-2.353a26.14 26.14 0 0 0-6.888-.844c-3.125.036-5.79.629-7.671 1.125 1.929-.36 4.613-.62 7.62-.231 2.11.273 4.205.84 6.33 1.752 1.879.806 3.673 1.833 5.475 3.047 1.738 1.17 3.412 2.467 5.101 3.812 3.948 3.143 7.07 5.751 10.828 7.81 2.414 1.323 4.533 2.079 6.203 2.39.128.025.257.047.384.066 3.555.546 6.235-.642 7.463-.96z" style="display:inline;fill:url(#z);fill-opacity:1;fill-rule:nonzero;stroke:none;stroke-width:1.63873"/><path d="M251.482 32.87c-.467-1.505-1.068-3.586-2.89-6.426a25.527 25.527 0 0 0-2.65-3.457 36.756 36.756 0 0 0-1.845-1.83c-1.609-1.51-3.238-2.935-4.694-4.612-1.945-2.24-2.91-4.23-3.345-5.77.118 1.57.362 3.862 1.758 6.796 1.02 2.147 2.435 4.153 3.88 5.862.613.726 1.227 1.39 1.783 1.938.96.945 2.091 1.878 3.169 2.776 2.422 2.018 3.916 3.406 4.834 4.722z" style="display:inline;fill:url(#A);fill-opacity:1;fill-rule:nonzero;stroke:none;stroke-width:1.39189"/></g></svg>